<svg width="31" height="31" viewBox="0 0 31 31" fill="none" xmlns="http://www.w3.org/2000/svg">
<path fill-rule="evenodd" clip-rule="evenodd" d="M18.2955 4.18973C16.169 3.61995 13.9301 3.61995 11.8036 4.18973C11.1346 4.36899 10.4469 3.97196 10.2676 3.30292C10.0884 2.63389 10.4854 1.9462 11.1544 1.76693C13.7062 1.0832 16.3929 1.0832 18.9447 1.76693C19.6137 1.9462 20.0107 2.63389 19.8315 3.30292C19.6522 3.97196 18.9645 4.36899 18.2955 4.18973ZM22.3938 4.55851C22.8127 4.00689 23.5994 3.89929 24.151 4.31817C25.7453 5.52879 27.082 7.0453 28.0829 8.77891C28.4292 9.37875 28.2237 10.1458 27.6238 10.4921C27.024 10.8384 26.257 10.6329 25.9106 10.033C25.0766 8.58837 23.9626 7.32461 22.6341 6.31576C22.0825 5.89688 21.9749 5.11013 22.3938 4.55851ZM15.0496 7.52478C10.2011 7.52478 6.27065 11.4552 6.27065 16.3037C6.27065 21.1522 10.2011 25.0826 15.0496 25.0826C19.898 25.0826 23.8285 21.1522 23.8285 16.3037C23.8285 11.4552 19.898 7.52478 15.0496 7.52478ZM3.76239 16.3037C3.76239 10.07 8.81583 5.01652 15.0496 5.01652C21.2833 5.01652 26.3367 10.07 26.3367 16.3037C26.3367 22.5374 21.2833 27.5909 15.0496 27.5909C8.81583 27.5909 3.76239 22.5374 3.76239 16.3037ZM20.9529 12.2816C21.4427 12.7713 21.4427 13.5654 20.9529 14.0552L14.6822 20.3258C14.1925 20.8156 13.3984 20.8156 12.9086 20.3258L9.7733 17.1905C9.28353 16.7007 9.28353 15.9067 9.7733 15.4169C10.2631 14.9271 11.0571 14.9271 11.5469 15.4169L13.7954 17.6654L19.1793 12.2816C19.669 11.7918 20.4631 11.7918 20.9529 12.2816Z" fill="black"/>
</svg>
