<svg width="30" height="30" viewBox="0 0 30 30" fill="none" xmlns="http://www.w3.org/2000/svg">
<path fill-rule="evenodd" clip-rule="evenodd" d="M16.5917 2.5476C17.0996 2.69193 17.4621 3.13993 17.4972 3.66685L18.0444 11.875H23.125C23.5932 11.875 24.0222 12.1367 24.2365 12.553C24.4507 12.9694 24.4143 13.4705 24.1422 13.8515L14.7672 26.9765C14.4602 27.4063 13.9163 27.5967 13.4084 27.4524C12.9004 27.3081 12.5379 26.8601 12.5028 26.3331L11.9556 18.125H6.875C6.40677 18.125 5.9778 17.8633 5.76355 17.447C5.54929 17.0306 5.58568 16.5295 5.85784 16.1485L15.2328 3.02345C15.5398 2.59373 16.0837 2.40326 16.5917 2.5476ZM9.30399 15.625H13.125C13.7831 15.625 14.3285 16.1352 14.3722 16.7919L14.7647 22.6788L20.696 14.375H16.875C16.2169 14.375 15.6715 13.8648 15.6278 13.2081L15.2353 7.32116L9.30399 15.625Z" fill="black"/>
</svg>
