<svg width="26" height="26" viewBox="0 0 26 26" fill="none" xmlns="http://www.w3.org/2000/svg">
<path fill-rule="evenodd" clip-rule="evenodd" d="M6.27065 3.76239C6.27065 1.68448 7.95513 0 10.033 0H15.0496C17.1275 0 18.812 1.68448 18.812 3.76239V6.27065H21.3202C23.3981 6.27065 25.0826 7.95513 25.0826 10.033V15.0496C25.0826 17.1275 23.3981 18.812 21.3202 18.812H18.812V21.3202C18.812 23.3981 17.1275 25.0826 15.0496 25.0826H10.033C7.95513 25.0826 6.27065 23.3981 6.27065 21.3202V18.812H3.76239C1.68448 18.812 2.99008e-07 17.1275 2.24256e-07 15.0496L0 10.033C-1.49504e-07 7.95513 1.68448 6.27065 3.76239 6.27065H6.27065V3.76239ZM10.033 2.50826C9.3404 2.50826 8.77891 3.06975 8.77891 3.76239V7.52478C8.77891 8.21742 8.21742 8.77891 7.52478 8.77891H3.76239C3.06975 8.77891 2.50826 9.3404 2.50826 10.033L2.50826 15.0496C2.50826 15.7422 3.06975 16.3037 3.76239 16.3037H7.52478C8.21742 16.3037 8.77891 16.8652 8.77891 17.5578V21.3202C8.77891 22.0128 9.3404 22.5743 10.033 22.5743H15.0496C15.7422 22.5743 16.3037 22.0128 16.3037 21.3202V17.5578C16.3037 16.8652 16.8652 16.3037 17.5578 16.3037H21.3202C22.0128 16.3037 22.5743 15.7422 22.5743 15.0496V10.033C22.5743 9.3404 22.0128 8.77891 21.3202 8.77891H17.5578C16.8652 8.77891 16.3037 8.21742 16.3037 7.52478V3.76239C16.3037 3.06975 15.7422 2.50826 15.0496 2.50826H10.033Z" fill="black"/>
</svg>
