<svg width="31" height="31" viewBox="0 0 31 31" fill="none" xmlns="http://www.w3.org/2000/svg">
<path fill-rule="evenodd" clip-rule="evenodd" d="M3.76237 2.50826C4.45501 2.50826 5.0165 3.06975 5.0165 3.76239V23.8285C5.0165 24.5211 5.57799 25.0826 6.27063 25.0826H26.3367C27.0294 25.0826 27.5908 25.6441 27.5908 26.3367C27.5908 27.0294 27.0294 27.5909 26.3367 27.5909H6.27063C4.19272 27.5909 2.50824 25.9064 2.50824 23.8285V3.76239C2.50824 3.06975 3.06973 2.50826 3.76237 2.50826ZM23.2389 6.46121C23.521 6.63747 23.7215 6.91856 23.7963 7.24266L24.9932 12.4271C25.1491 13.102 24.7283 13.7754 24.0534 13.9312C23.3785 14.087 22.7051 13.6663 22.5493 12.9914L22.006 10.6382L19.0193 15.1182C18.7867 15.4671 18.3952 15.6766 17.9758 15.6766H14.0486L9.82239 22.0159C9.43818 22.5922 8.65953 22.7479 8.08323 22.3637C7.50692 21.9795 7.35119 21.2009 7.73539 20.6245L12.3339 13.7268C12.5665 13.3779 12.958 13.1684 13.3774 13.1684H17.3047L19.7787 9.45733L17.672 9.94371C16.9971 10.0995 16.3237 9.67873 16.1679 9.00384C16.0121 8.32896 16.4329 7.65555 17.1078 7.49973L22.2922 6.30279C22.6163 6.22797 22.9568 6.28495 23.2389 6.46121Z" fill="black"/>
</svg>
